<svg xmlns="http://www.w3.org/2000/svg" width="465" height="58" viewBox="0 0 465 58">
    <defs>
        <style>
            .cls-3{fill:#fff}
        </style>
    </defs>
    <g id="btn_event" transform="translate(-728 -1056)">
        <g id="btn" transform="translate(728 1056)">
            <rect id="사각형_348" width="465" height="58" fill="#319fdc" rx="4"/>
            <text id="E-booth_이벤트" fill="#fff" font-family="NanumSquareB, NanumSquare" font-size="16px" transform="translate(253 34)">
                <tspan x="-54.064" y="0">E-booth 이벤트</tspan>
            </text>
            <g id="icon_event" transform="translate(126.97 12)">
                <path id="패스_1207" d="M160.6 213.85a.577.577 0 0 1-.166-1.13c1.192-.357 2.486-1.666 3.552-3.588a.577.577 0 1 1 1.01.559c-1.212 2.184-2.752 3.693-4.229 4.134a.572.572 0 0 1-.167.025z" class="cls-3" transform="translate(-118.762 -194.087)"/>
                <path id="패스_1208" d="M52.792 4.533h-.009a8.411 8.411 0 0 0-3.373.722A9.277 9.277 0 0 0 41.261 0c-4.917 0-9.231 4.5-9.231 9.633 0 4.438 3.1 10.471 7.176 12.053l-.245 1.453a.559.559 0 0 0 .129.459.58.58 0 0 0 .44.2h.93l-.365 1.077a3.882 3.882 0 0 0 .474 3.456l.428.631a2.775 2.775 0 0 1 .337 2.468l-.618 1.823a.565.565 0 0 0 .366.717.58.58 0 0 0 .73-.359l.615-1.824a3.881 3.881 0 0 0-.474-3.457l-.429-.631a2.773 2.773 0 0 1-.337-2.468l.489-1.434h1.315a.581.581 0 0 0 .44-.2.561.561 0 0 0 .129-.459l-.245-1.452a7.521 7.521 0 0 0 1.948-1.129c1.212 2.388 3.124 4.751 5.481 5.669l-.244 1.446a.559.559 0 0 0 .129.459.581.581 0 0 0 .44.2H52l-.365 1.077a3.882 3.882 0 0 0 .474 3.457l.428.63c.046.068.089.138.129.209a.582.582 0 0 0 .782.225.561.561 0 0 0 .231-.768c-.058-.1-.115-.2-.181-.294l-.428-.631a2.772 2.772 0 0 1-.338-2.468l.485-1.436h1.313a.581.581 0 0 0 .44-.2.56.56 0 0 0 .129-.459l-.243-1.435a10 10 0 0 0 4.558-4.065 15.676 15.676 0 0 0 2.616-8.024c-.012-5.126-4.33-9.616-9.238-9.616zm-19.608 5.1c0-4.528 3.774-8.5 8.077-8.5A8.19 8.19 0 0 1 48.6 6.226a8.371 8.371 0 0 1 .737 3.406 9.7 9.7 0 0 1-.084 1.247 12.546 12.546 0 0 1-.288 1.469 14.761 14.761 0 0 1-3.9 6.886 6.545 6.545 0 0 1-2.565 1.547 4.25 4.25 0 0 1-1.861.138 4.406 4.406 0 0 1-.62-.139c-3.786-1.118-6.835-7.011-6.835-11.147zm7.027 13.032l.11-.65c.034.006.068.008.1.014s.084.011.126.016a5.287 5.287 0 0 0 .7.053h.018a5.33 5.33 0 0 0 .7-.053c.042-.006.085-.01.127-.017s.068-.007.1-.014l.11.649zM53.85 27.2h-2.1l.11-.65c.065.011.13.017.195.026l.162.022a5.566 5.566 0 0 0 .583.036h.016a5.439 5.439 0 0 0 .923-.082zm4.6-5.638a8.543 8.543 0 0 1-4.438 3.76 4.336 4.336 0 0 1-.553.123l-.078.011a4.194 4.194 0 0 1-1.159 0c-.048-.007-.1-.018-.143-.027a4.413 4.413 0 0 1-.468-.1c-2.342-.658-4.279-3.124-5.45-5.553.034-.034.067-.072.1-.107.072-.074.143-.15.214-.227q.126-.137.25-.279c.07-.081.139-.163.208-.247s.16-.2.239-.3.135-.176.2-.265.152-.207.225-.313.129-.186.193-.283.143-.217.212-.328.123-.2.183-.3.133-.227.2-.34l.173-.308c.063-.113.123-.232.183-.349s.108-.21.16-.316.115-.24.17-.36.1-.214.146-.321.1-.245.154-.368.089-.216.131-.324c.048-.125.092-.249.138-.374.039-.108.079-.217.115-.325.043-.127.081-.253.121-.381l.1-.321c.037-.129.069-.257.1-.386.027-.1.058-.21.081-.315.031-.132.058-.262.084-.393.021-.1.044-.2.062-.3.025-.137.044-.272.064-.407.014-.093.031-.187.043-.279.019-.149.031-.3.044-.444.007-.076.017-.153.022-.227.014-.221.022-.44.022-.654a9.2 9.2 0 0 0-.049-.92c-.01-.1-.029-.2-.042-.3-.028-.2-.058-.409-.1-.613-.024-.117-.054-.234-.082-.351-.046-.187-.095-.373-.151-.558-.037-.119-.077-.238-.118-.357-.029-.084-.052-.17-.084-.253a7.242 7.242 0 0 1 2.914-.613h.008c4.3 0 8.077 3.963 8.085 8.484a14.506 14.506 0 0 1-2.434 7.406z" class="cls-3"/>
            </g>
        </g>
        <g id="그룹_566">
            <g id="event">
                <path id="패스_1209" fill="#27e8c4" d="M-8.432 0H22.21l29.358 25-.015 25z" transform="translate(1141.432 1056)"/>
                <path id="패스_1210" fill="#222" stroke="#222" stroke-width="0.2px" d="M-17.23-11.98a1.211 1.211 0 0 1 .21-.48.67.67 0 0 1 .53-.22h3.82a.261.261 0 0 1 .23.1.305.305 0 0 1 .05.23.386.386 0 0 1-.13.23.414.414 0 0 1-.29.1q-.3 0-.74.01t-.93.03q-.49.02-.98.03t-.91.03q-.28 1.3-.5 2.44t-.34 2.04a10.492 10.492 0 0 1 3.42.04.336.336 0 0 1 .22.14.294.294 0 0 1 .04.21.312.312 0 0 1-.12.19.3.3 0 0 1-.24.06 12.232 12.232 0 0 0-1.71-.04q-.85.04-1.71.14-.14.7-.27 1.43t-.23 1.44q-.1.71-.18 1.35t-.12 1.14q.84 0 1.83-.09t1.83-.17a.3.3 0 0 1 .25.06.275.275 0 0 1 .1.18.306.306 0 0 1-.07.21.418.418 0 0 1-.26.15q-.16.04-.63.11t-1.03.13q-.56.06-1.11.11t-.85.05a.827.827 0 0 1-.63-.19.821.821 0 0 1-.13-.63q.02-.44.13-1.29t.25-1.88q.14-1.03.32-2.17t.34-2.16q.16-1.02.3-1.84t.24-1.22zm6 .5q.02-.34.1-.41a.416.416 0 0 1 .22-.09.258.258 0 0 1 .21.05q.09.07.09.33.04 2.9.31 5.5a36.8 36.8 0 0 0 .73 4.56q.4-1.24.87-2.64t1-2.8q.53-1.4 1.11-2.73a23.567 23.567 0 0 1 1.22-2.43q.12-.22.26-.25a.41.41 0 0 1 .24.01.245.245 0 0 1 .16.18.5.5 0 0 1-.08.36q-.6 1.16-1.16 2.47T-7.03-6.7q-.52 1.36-.99 2.75l-.91 2.69a2.13 2.13 0 0 1-.28.58.5.5 0 0 1-.36.2.459.459 0 0 1-.37-.14 1.2 1.2 0 0 1-.27-.6 39.039 39.039 0 0 1-.86-5.04 37.362 37.362 0 0 1-.16-5.22zm9.88-.5a1.211 1.211 0 0 1 .21-.48.67.67 0 0 1 .53-.22h3.82a.261.261 0 0 1 .23.1.305.305 0 0 1 .05.23.386.386 0 0 1-.13.23.414.414 0 0 1-.29.1q-.3 0-.74.01t-.93.03q-.49.02-.98.03t-.91.03q-.28 1.3-.5 2.44t-.34 2.04a10.492 10.492 0 0 1 3.42.04.336.336 0 0 1 .22.14.294.294 0 0 1 .04.21.312.312 0 0 1-.12.19.3.3 0 0 1-.24.06 12.232 12.232 0 0 0-1.71-.04q-.85.04-1.71.14-.14.7-.27 1.43t-.23 1.44q-.1.71-.18 1.35t-.12 1.14q.84 0 1.83-.09t1.83-.17a.3.3 0 0 1 .25.06.275.275 0 0 1 .1.18.306.306 0 0 1-.07.21.418.418 0 0 1-.26.15q-.16.04-.63.11t-1.03.13q-.56.06-1.11.11t-.85.05a.827.827 0 0 1-.63-.19.821.821 0 0 1-.13-.63q.02-.44.13-1.29t.25-1.88q.14-1.03.32-2.17t.34-2.16q.16-1.02.3-1.84t.24-1.22zM4.57-.34q.04-1.08.17-2.44t.33-2.86q.2-1.5.46-3.07t.58-3.07a.733.733 0 0 1 .2-.37.435.435 0 0 1 .3-.13.507.507 0 0 1 .3.1.546.546 0 0 1 .2.3q.32 1.12.64 2.39t.62 2.55q.3 1.28.57 2.5t.49 2.26q.08-.46.18-1.2t.23-1.63q.13-.89.25-1.86t.23-1.9q.11-.93.2-1.75t.15-1.4q.04-.38.28-.42a.256.256 0 0 1 .23.07.623.623 0 0 1 .09.41q0 .56-.07 1.37t-.17 1.77q-.1.96-.24 2T10.5-4.7q-.15.98-.3 1.87T9.91-1.3a.814.814 0 0 1-.16.37.418.418 0 0 1-.27.17.378.378 0 0 1-.29-.09.654.654 0 0 1-.2-.39q-.1-.5-.27-1.26t-.38-1.64q-.21-.88-.44-1.83l-.45-1.86q-.22-.91-.43-1.71t-.37-1.38q-.24 1.26-.46 2.67t-.43 2.82q-.21 1.41-.37 2.74T5.11-.3A.292.292 0 0 1 5-.11a.3.3 0 0 1-.19.07.231.231 0 0 1-.17-.07.316.316 0 0 1-.07-.23zm11.9-11.42a.041.041 0 0 1 .01-.03.041.041 0 0 0 .01-.03q-.8.04-1.53.08a12.958 12.958 0 0 0-1.35.14.248.248 0 0 1-.23-.06.326.326 0 0 1-.08-.19.309.309 0 0 1 .06-.21.379.379 0 0 1 .23-.14q.54-.1 1.23-.17t1.45-.1q.76-.03 1.58-.02t1.62.05a.328.328 0 0 1 .27.11.315.315 0 0 1 .08.23.334.334 0 0 1-.12.22.444.444 0 0 1-.31.1q-.54-.02-1.07-.03t-1.05-.01a2 2 0 0 1-.04.24q-.34 1.02-.65 2.33T16-6.5q-.27 1.44-.48 2.91T15.17-.8a.393.393 0 0 1-.11.26.244.244 0 0 1-.19.07.275.275 0 0 1-.18-.1.363.363 0 0 1-.08-.25q.02-.78.11-1.72t.23-1.94q.14-1 .31-2.03t.37-1.98q.2-.95.41-1.79t.43-1.48z" transform="rotate(40 -900.027 2139.43)"/>
            </g>
        </g>
    </g>
</svg>
